<svg xmlns="http://www.w3.org/2000/svg" xmlns:xlink="http://www.w3.org/1999/xlink" width="595" zoomAndPan="magnify" viewBox="0 0 446.25 109.499999" height="146" preserveAspectRatio="xMidYMid meet" version="1.2"><defs><clipPath id="4032f99c1f"><path d="M 0.640625 0 L 173 0 L 173 87.425781 L 0.640625 87.425781 Z M 0.640625 0 "/></clipPath><clipPath id="014081603a"><path d="M 148.710938 82.953125 C 145.515625 83.632812 142.738281 83.207031 140.695312 81.722656 C 138.6875 80.265625 137.445312 77.839844 137.117188 74.703125 C 136.574219 69.613281 138.753906 63.109375 142.933594 57.292969 C 147.113281 51.476562 152.609375 47.355469 157.613281 46.257812 C 158.777344 46.003906 159.882812 45.878906 160.910156 45.878906 C 163.085938 45.878906 164.914062 46.445312 166.316406 47.566406 C 168.386719 49.222656 169.484375 52.082031 169.496094 55.828125 C 169.527344 67.28125 159.238281 80.722656 148.71875 82.953125 M 48.296875 34.785156 C 48.289062 34.792969 48.28125 34.792969 48.273438 34.792969 C 44.347656 36.539062 40.105469 37.816406 35.976562 38.996094 C 27.953125 41.285156 19.296875 42.535156 11.003906 41.078125 C 8.308594 40.601562 4.261719 39.554688 3.417969 36.523438 C 2.941406 34.796875 3.523438 32.851562 4.449219 31.378906 C 6.53125 28.085938 10.332031 26.453125 13.898438 25.300781 C 17.945312 24.003906 22.195312 23.367188 26.441406 23.414062 C 29.90625 23.449219 33.355469 23.941406 36.722656 24.765625 C 40.152344 25.601562 43.519531 26.75 46.773438 28.109375 C 47.980469 28.617188 49.175781 29.175781 50.296875 29.855469 C 51.476562 30.566406 52.542969 31.425781 53.640625 32.246094 C 53.640625 32.246094 49.902344 34.066406 48.289062 34.785156 M 168.480469 44.847656 C 165.578125 42.519531 161.554688 41.824219 156.859375 42.855469 C 144.941406 45.476562 133.273438 61.125 133.554688 73.546875 C 127.816406 79.078125 121.4375 84.433594 113.390625 84.859375 C 112.226562 84.917969 111.046875 84.648438 110.0625 84.015625 C 106.277344 81.578125 108.148438 76.480469 110.210938 72.917969 C 113.160156 67.820312 116.109375 62.722656 119.058594 57.613281 C 121.140625 54.007812 123.320312 49.910156 120.976562 45.789062 C 120.320312 44.632812 119.371094 43.660156 118.265625 42.921875 C 115.101562 40.808594 111.234375 40.675781 107.613281 41.285156 C 101.402344 42.347656 95.59375 45.625 91.472656 50.394531 C 90.53125 44.503906 84.011719 40.777344 78.054688 41.054688 C 72.097656 41.332031 66.714844 44.609375 61.929688 48.164062 C 62.03125 48.082031 61.921875 46.992188 61.921875 46.820312 C 61.929688 46.355469 61.9375 45.886719 61.945312 45.421875 C 61.964844 44.488281 61.996094 43.554688 62.003906 42.621094 C 62.019531 39.75 61.464844 36.703125 59.539062 34.441406 C 59.121094 33.949219 58.703125 33.476562 58.285156 32.984375 L 61.863281 30.878906 C 74.472656 22.777344 87.296875 14.878906 101.09375 9.027344 C 114.929688 3.15625 130.457031 -0.597656 144.957031 3.335938 C 149.980469 4.695312 154.929688 7.109375 158.089844 11.242188 C 161.246094 15.378906 162.160156 21.507812 159.222656 25.808594 C 157.351562 28.566406 153.929688 31.5 155.625 34.449219 C 156.484375 35.941406 158.328125 36.53125 159.964844 36 C 162.90625 35.039062 164.078125 32.101562 164.503906 29.3125 C 165.25 24.347656 164.023438 19.394531 161.507812 15.066406 C 158.730469 10.28125 154.378906 6.257812 149.390625 3.816406 C 139.894531 -0.835938 128.703125 -0.6875 118.332031 1.382812 C 99.25 5.179688 81.90625 14.9375 65.527344 25.445312 C 63.078125 27.011719 56.417969 30.582031 56.417969 30.582031 C 56.417969 30.582031 53.535156 28.242188 53.023438 27.894531 C 51.476562 26.839844 49.847656 25.90625 48.152344 25.109375 C 39.539062 21.039062 29.011719 20.335938 19.738281 22.160156 C 16.109375 22.875 12.421875 23.867188 9.078125 25.5625 C 5.859375 27.191406 2.320312 29.683594 1.023438 33.207031 C 0.394531 34.902344 0.527344 36.710938 1.542969 38.21875 C 1.992188 38.890625 2.574219 39.464844 3.210938 39.957031 C 7.832031 43.59375 14.117188 44.175781 19.785156 44.339844 C 32.707031 44.714844 44.160156 40.167969 55.449219 34.359375 C 55.476562 34.34375 56 34.875 56.039062 34.902344 C 56.507812 35.304688 56.898438 35.785156 57.148438 36.351562 C 57.808594 37.816406 57.644531 39.679688 57.300781 41.203125 C 56.917969 42.890625 56.210938 44.488281 55.410156 46.019531 C 55.007812 46.789062 54.582031 47.542969 54.140625 48.296875 C 48.59375 57.859375 43.054688 67.425781 37.515625 76.988281 C 36.386719 78.9375 31.960938 86.289062 31.960938 86.289062 L 39.898438 86.304688 C 39.898438 86.304688 41.21875 84.433594 41.785156 83.417969 C 45.011719 77.707031 48.230469 71.992188 51.453125 66.28125 C 57.007812 56.414062 63.808594 45.585938 74.875 43.125 C 79.203125 42.160156 85.253906 43.800781 84.304688 49.109375 C 84.160156 49.910156 83.863281 50.664062 83.46875 51.371094 C 78.601562 60.136719 73.554688 68.796875 68.328125 77.347656 C 67.3125 79.011719 62.636719 86.34375 62.636719 86.34375 L 70.625 86.320312 C 70.625 86.320312 71.613281 84.894531 71.96875 84.269531 C 80.988281 68.5 80.839844 68.640625 85.527344 60.964844 C 90.21875 53.292969 96.613281 46.027344 105.222656 43.414062 C 109.382812 42.152344 115.191406 42.78125 115.628906 47.894531 C 115.757812 49.402344 115.355469 50.910156 114.585938 52.210938 C 111.308594 57.757812 108.03125 63.296875 104.753906 68.84375 C 102.902344 71.980469 100.976562 75.441406 101.519531 79.050781 C 102.246094 83.855469 107.367188 87.050781 112.226562 87.089844 C 117.085938 87.128906 121.625 84.738281 125.664062 82.027344 C 128.503906 80.125 131.203125 78.027344 133.757812 75.765625 C 134.308594 79.578125 135.984375 82.617188 138.648438 84.550781 C 140.671875 86.015625 143.121094 86.761719 145.851562 86.761719 C 147.003906 86.761719 148.195312 86.625 149.4375 86.367188 C 161.5625 83.78125 173 68.949219 172.96875 55.828125 C 172.953125 50.992188 171.410156 47.199219 168.488281 44.855469 "/></clipPath><clipPath id="76656b328c"><path d="M 182.335938 41.316406 L 207.769531 41.316406 L 207.769531 86.378906 L 182.335938 86.378906 Z M 182.335938 41.316406 "/></clipPath><clipPath id="a12ecaaa32"><path d="M 189.882812 49.027344 L 189.882812 42.597656 L 182.476562 42.597656 L 182.476562 86.207031 L 190.285156 86.207031 L 190.285156 63.097656 C 190.285156 58.542969 191.382812 55.042969 193.578125 52.601562 C 195.773438 50.160156 198.660156 48.945312 202.246094 48.945312 C 203.707031 48.945312 205.230469 49.191406 206.800781 49.675781 L 207.53125 42.105469 C 205.695312 41.671875 203.984375 41.457031 202.410156 41.457031 C 196.609375 41.457031 192.425781 43.980469 189.882812 49.027344 "/></clipPath><clipPath id="86bbd825ed"><path d="M 214.128906 41.316406 L 239.285156 41.316406 L 239.285156 86.378906 L 214.128906 86.378906 Z M 214.128906 41.316406 "/></clipPath><clipPath id="0547cf967a"><path d="M 221.53125 49.027344 L 221.53125 42.597656 L 214.128906 42.597656 L 214.128906 86.207031 L 221.941406 86.207031 L 221.941406 63.097656 C 221.941406 58.542969 223.039062 55.042969 225.234375 52.601562 C 227.425781 50.160156 230.316406 48.945312 233.902344 48.945312 C 235.363281 48.945312 236.878906 49.191406 238.453125 49.675781 L 239.1875 42.105469 C 237.34375 41.671875 235.640625 41.457031 234.066406 41.457031 C 228.257812 41.457031 224.082031 43.980469 221.53125 49.027344 "/></clipPath><clipPath id="2cd0a2ae78"><path d="M 241 41.316406 L 286 41.316406 L 286 104.902344 L 241 104.902344 Z M 241 41.316406 "/></clipPath><clipPath id="9e7bcfece2"><path d="M 274.507812 74.894531 C 271.683594 77.820312 268.132812 79.292969 263.847656 79.292969 C 259.613281 79.292969 256.058594 77.828125 253.183594 74.894531 C 250.363281 72.019531 248.953125 68.363281 248.953125 63.914062 C 248.953125 59.464844 250.363281 55.828125 253.183594 53.011719 C 256.007812 50.085938 259.5625 48.613281 263.847656 48.613281 C 268.078125 48.613281 271.625 50.078125 274.507812 53.011719 C 277.328125 55.835938 278.742188 59.46875 278.742188 63.914062 C 278.742188 68.355469 277.328125 72.019531 274.507812 74.894531 M 278.246094 48.285156 C 274.34375 43.785156 269.378906 41.53125 263.355469 41.53125 C 257.058594 41.53125 251.773438 43.671875 247.488281 47.957031 C 243.203125 52.191406 241.058594 57.476562 241.058594 63.824219 C 241.058594 70.167969 243.152344 75.515625 247.324219 79.851562 C 251.445312 84.136719 256.65625 86.28125 262.949219 86.28125 C 269.242188 86.28125 274.34375 84.011719 278.246094 79.457031 L 278.246094 83.039062 C 278.246094 87.378906 276.835938 90.878906 274.015625 93.539062 C 271.191406 96.308594 267.371094 97.6875 262.539062 97.6875 C 256.957031 97.6875 251.773438 95.925781 246.996094 92.402344 L 243.335938 98.585938 C 249.085938 102.707031 255.515625 104.765625 262.621094 104.765625 C 269.667969 104.765625 275.34375 102.675781 279.628906 98.503906 C 283.863281 94.320312 285.976562 88.738281 285.976562 81.742188 L 285.976562 42.597656 L 278.246094 42.597656 Z M 278.246094 48.285156 "/></clipPath><clipPath id="1824de5d27"><path d="M 295.335938 41.535156 L 340.007812 41.535156 L 340.007812 87.429688 L 295.335938 87.429688 Z M 295.335938 41.535156 "/></clipPath><clipPath id="d7dddb1f6c"><path d="M 328.855469 75.550781 C 326.085938 78.589844 322.480469 80.105469 318.03125 80.105469 C 313.582031 80.105469 310.003906 78.589844 307.289062 75.550781 C 304.570312 72.511719 303.21875 68.792969 303.21875 64.40625 C 303.21875 60.015625 304.570312 56.296875 307.289062 53.257812 C 310.003906 50.21875 313.582031 48.703125 318.03125 48.703125 C 322.480469 48.703125 326.085938 50.21875 328.855469 53.257812 C 331.628906 56.246094 333.007812 59.933594 333.007812 64.324219 C 333.007812 68.824219 331.628906 72.574219 328.855469 75.550781 M 332.515625 48.941406 C 328.453125 44.007812 323.324219 41.535156 317.144531 41.535156 C 310.847656 41.535156 305.636719 43.679688 301.515625 47.964844 C 297.394531 52.144531 295.335938 57.511719 295.335938 64.074219 C 295.335938 70.640625 297.394531 76.148438 301.515625 80.589844 C 305.636719 85.03125 310.847656 87.265625 317.144531 87.265625 C 323.488281 87.265625 328.617188 84.855469 332.523438 80.023438 L 332.523438 86.207031 L 340.003906 86.207031 L 340.003906 42.597656 L 332.523438 42.597656 Z M 332.515625 48.941406 "/></clipPath><clipPath id="233604e509"><path d="M 352.132812 41.457031 L 391 41.457031 L 391 86.238281 L 352.132812 86.238281 Z M 352.132812 41.457031 "/></clipPath><clipPath id="015968a42a"><path d="M 373.609375 41.457031 C 367.152344 41.457031 362.546875 43.898438 359.777344 48.777344 L 359.777344 42.597656 L 352.132812 42.597656 L 352.132812 86.207031 L 359.941406 86.207031 L 359.941406 62.039062 C 359.941406 58.1875 361.054688 54.992188 363.277344 52.4375 C 365.554688 49.945312 368.460938 48.695312 371.984375 48.695312 C 375.351562 48.695312 378.046875 49.863281 380.078125 52.199219 C 382.105469 54.535156 383.128906 57.78125 383.128906 61.964844 L 383.128906 86.207031 L 390.863281 86.207031 L 390.863281 59.761719 C 390.863281 53.847656 389.207031 49.316406 385.898438 46.171875 C 382.59375 43.03125 378.492188 41.457031 373.609375 41.457031 "/></clipPath><clipPath id="fee74982a8"><path d="M 399.734375 41.535156 L 444.578125 41.535156 L 444.578125 87.429688 L 399.734375 87.429688 Z M 399.734375 41.535156 "/></clipPath><clipPath id="0e931fc6c1"><path d="M 433.253906 75.550781 C 430.484375 78.589844 426.878906 80.105469 422.4375 80.105469 C 417.996094 80.105469 414.402344 78.589844 411.691406 75.550781 C 408.984375 72.511719 407.625 68.792969 407.625 64.40625 C 407.625 60.015625 408.984375 56.296875 411.691406 53.257812 C 414.402344 50.21875 417.988281 48.703125 422.4375 48.703125 C 426.886719 48.703125 430.492188 50.21875 433.253906 53.257812 C 436.023438 56.246094 437.40625 59.933594 437.40625 64.324219 C 437.40625 68.824219 436.023438 72.574219 433.253906 75.550781 M 436.921875 42.597656 L 436.921875 48.941406 C 432.851562 44.007812 427.722656 41.535156 421.539062 41.535156 C 415.246094 41.535156 410.035156 43.679688 405.914062 47.964844 C 401.792969 52.144531 399.734375 57.511719 399.734375 64.074219 C 399.734375 70.640625 401.792969 76.148438 405.914062 80.589844 C 410.035156 85.03125 415.246094 87.265625 421.539062 87.265625 C 427.886719 87.265625 433.015625 84.855469 436.921875 80.023438 L 436.921875 86.207031 L 444.410156 86.207031 L 444.410156 42.597656 Z M 436.921875 42.597656 "/></clipPath></defs><g id="7d732867aa"><g clip-rule="nonzero" clip-path="url(#4032f99c1f)"><g clip-rule="nonzero" clip-path="url(#014081603a)"><path style=" stroke:none;fill-rule:nonzero;fill:#b79050;fill-opacity:1;" d="M 0.640625 0 L 173.109375 0 L 173.109375 87.082031 L 0.640625 87.082031 Z M 0.640625 0 "/></g></g><g clip-rule="nonzero" clip-path="url(#76656b328c)"><g clip-rule="nonzero" clip-path="url(#a12ecaaa32)"><path style=" stroke:none;fill-rule:nonzero;fill:#b79050;fill-opacity:1;" d="M 178.742188 37.722656 L 289.601562 37.722656 L 289.601562 108.496094 L 178.742188 108.496094 Z M 178.742188 37.722656 "/></g></g><g clip-rule="nonzero" clip-path="url(#86bbd825ed)"><g clip-rule="nonzero" clip-path="url(#0547cf967a)"><path style=" stroke:none;fill-rule:nonzero;fill:#b79050;fill-opacity:1;" d="M 178.742188 37.722656 L 289.601562 37.722656 L 289.601562 108.496094 L 178.742188 108.496094 Z M 178.742188 37.722656 "/></g></g><g clip-rule="nonzero" clip-path="url(#2cd0a2ae78)"><g clip-rule="nonzero" clip-path="url(#9e7bcfece2)"><path style=" stroke:none;fill-rule:nonzero;fill:#b79050;fill-opacity:1;" d="M 178.742188 37.722656 L 289.601562 37.722656 L 289.601562 108.496094 L 178.742188 108.496094 Z M 178.742188 37.722656 "/></g></g><g clip-rule="nonzero" clip-path="url(#1824de5d27)"><g clip-rule="nonzero" clip-path="url(#d7dddb1f6c)"><path style=" stroke:none;fill-rule:nonzero;fill:#b79050;fill-opacity:1;" d="M 295.335938 41.535156 L 340.007812 41.535156 L 340.007812 87.253906 L 295.335938 87.253906 Z M 295.335938 41.535156 "/></g></g><g clip-rule="nonzero" clip-path="url(#233604e509)"><g clip-rule="nonzero" clip-path="url(#015968a42a)"><path style=" stroke:none;fill-rule:nonzero;fill:#b79050;fill-opacity:1;" d="M 352.132812 41.457031 L 390.863281 41.457031 L 390.863281 86.238281 L 352.132812 86.238281 Z M 352.132812 41.457031 "/></g></g><g clip-rule="nonzero" clip-path="url(#fee74982a8)"><g clip-rule="nonzero" clip-path="url(#0e931fc6c1)"><path style=" stroke:none;fill-rule:nonzero;fill:#b79050;fill-opacity:1;" d="M 399.734375 41.535156 L 444.40625 41.535156 L 444.40625 87.253906 L 399.734375 87.253906 Z M 399.734375 41.535156 "/></g></g></g></svg>